<mxfile host="app.diagrams.net" modified="2020-08-25T05:43:52.894Z" agent="5.0 (Macintosh; Intel Mac OS X 10_15_6) AppleWebKit/537.36 (KHTML, like Gecko) Chrome/84.0.4147.135 Safari/537.36" etag="q-7kvbXVVDKO1M3BWlJ3" version="13.6.5" type="github">
  <diagram name="Page-1" id="e7e014a7-5840-1c2e-5031-d8a46d1fe8dd">
    <mxGraphModel dx="1426" dy="803" grid="1" gridSize="10" guides="1" tooltips="1" connect="1" arrows="1" fold="1" page="1" pageScale="1" pageWidth="1169" pageHeight="826" background="#ffffff" math="0" shadow="0">
      <root>
        <mxCell id="0" />
        <mxCell id="1" parent="0" />
        <mxCell id="2" value="观众客户端" style="swimlane;whiteSpace=wrap" parent="1" vertex="1">
          <mxGeometry x="25" y="30" width="280" height="1070" as="geometry" />
        </mxCell>
        <mxCell id="7" value="进房" style="" parent="2" vertex="1">
          <mxGeometry x="60" y="60" width="110" height="50" as="geometry" />
        </mxCell>
        <mxCell id="S6mjlUuuefc65Kb8fgyC-118" value="成功" style="edgeStyle=orthogonalEdgeStyle;rounded=0;orthogonalLoop=1;jettySize=auto;html=1;exitX=0.5;exitY=1;exitDx=0;exitDy=0;entryX=0.5;entryY=0;entryDx=0;entryDy=0;" parent="2" source="8" target="10" edge="1">
          <mxGeometry relative="1" as="geometry" />
        </mxCell>
        <mxCell id="8" value="处理结果" style="" parent="2" vertex="1">
          <mxGeometry x="60" y="132" width="110" height="50" as="geometry" />
        </mxCell>
        <mxCell id="10" value="请求TRTC SDK" style="" parent="2" vertex="1">
          <mxGeometry x="60" y="222" width="110" height="50" as="geometry" />
        </mxCell>
        <mxCell id="RbEWKXzUfmcOPAviiLDR-69" value="客户端进房" style="" parent="2" vertex="1">
          <mxGeometry x="60" y="302" width="110" height="50" as="geometry" />
        </mxCell>
        <mxCell id="S6mjlUuuefc65Kb8fgyC-74" value="上麦" style="" parent="2" vertex="1">
          <mxGeometry x="60" y="390" width="110" height="50" as="geometry" />
        </mxCell>
        <mxCell id="S6mjlUuuefc65Kb8fgyC-76" value="完成" style="" parent="2" vertex="1">
          <mxGeometry x="60" y="452" width="110" height="50" as="geometry" />
        </mxCell>
        <mxCell id="S6mjlUuuefc65Kb8fgyC-168" style="edgeStyle=orthogonalEdgeStyle;rounded=0;orthogonalLoop=1;jettySize=auto;html=1;exitX=0.5;exitY=1;exitDx=0;exitDy=0;entryX=0.5;entryY=0;entryDx=0;entryDy=0;" parent="2" source="S6mjlUuuefc65Kb8fgyC-165" target="S6mjlUuuefc65Kb8fgyC-150" edge="1">
          <mxGeometry relative="1" as="geometry" />
        </mxCell>
        <mxCell id="S6mjlUuuefc65Kb8fgyC-165" value="接收IM" style="" parent="2" vertex="1">
          <mxGeometry x="60" y="760" width="110" height="50" as="geometry" />
        </mxCell>
        <mxCell id="S6mjlUuuefc65Kb8fgyC-150" value="请求TRTC SDK" style="" parent="2" vertex="1">
          <mxGeometry x="60" y="840" width="110" height="50" as="geometry" />
        </mxCell>
        <mxCell id="S6mjlUuuefc65Kb8fgyC-151" value="上麦完成" style="" parent="2" vertex="1">
          <mxGeometry x="60" y="920" width="110" height="50" as="geometry" />
        </mxCell>
        <mxCell id="3" value="TRTC" style="swimlane;whiteSpace=wrap" parent="1" vertex="1">
          <mxGeometry x="585" y="30" width="280" height="1070" as="geometry" />
        </mxCell>
        <mxCell id="RbEWKXzUfmcOPAviiLDR-70" value="处理进房" style="" parent="3" vertex="1">
          <mxGeometry x="85" y="222" width="110" height="50" as="geometry" />
        </mxCell>
        <mxCell id="4" value="服务端" style="swimlane;whiteSpace=wrap" parent="1" vertex="1">
          <mxGeometry x="864.5" y="30" width="280" height="1070" as="geometry" />
        </mxCell>
        <mxCell id="S6mjlUuuefc65Kb8fgyC-112" style="edgeStyle=orthogonalEdgeStyle;rounded=0;orthogonalLoop=1;jettySize=auto;html=1;exitX=0.5;exitY=1;exitDx=0;exitDy=0;entryX=0.5;entryY=0;entryDx=0;entryDy=0;" parent="4" source="S6mjlUuuefc65Kb8fgyC-108" target="S6mjlUuuefc65Kb8fgyC-109" edge="1">
          <mxGeometry relative="1" as="geometry" />
        </mxCell>
        <mxCell id="S6mjlUuuefc65Kb8fgyC-108" value="校验进房权限" style="" parent="4" vertex="1">
          <mxGeometry x="85" y="60" width="110" height="50" as="geometry" />
        </mxCell>
        <mxCell id="S6mjlUuuefc65Kb8fgyC-109" value="生成进房&#xa;PrivateMapKey&#xa;1分钟过期" style="" parent="4" vertex="1">
          <mxGeometry x="85" y="132" width="110" height="50" as="geometry" />
        </mxCell>
        <mxCell id="S6mjlUuuefc65Kb8fgyC-129" value="校验进房权限" style="" parent="4" vertex="1">
          <mxGeometry x="85" y="390" width="110" height="50" as="geometry" />
        </mxCell>
        <mxCell id="S6mjlUuuefc65Kb8fgyC-148" style="edgeStyle=orthogonalEdgeStyle;rounded=0;orthogonalLoop=1;jettySize=auto;html=1;exitX=0.5;exitY=1;exitDx=0;exitDy=0;" parent="4" source="S6mjlUuuefc65Kb8fgyC-142" target="S6mjlUuuefc65Kb8fgyC-147" edge="1">
          <mxGeometry relative="1" as="geometry" />
        </mxCell>
        <mxCell id="S6mjlUuuefc65Kb8fgyC-142" value="校验房主角色" style="" parent="4" vertex="1">
          <mxGeometry x="85" y="600" width="110" height="50" as="geometry" />
        </mxCell>
        <mxCell id="S6mjlUuuefc65Kb8fgyC-147" value="生成上麦&#xa;PrivateMapKey&#xa;1分钟过期" style="" parent="4" vertex="1">
          <mxGeometry x="85" y="760" width="110" height="50" as="geometry" />
        </mxCell>
        <mxCell id="RbEWKXzUfmcOPAviiLDR-71" style="edgeStyle=orthogonalEdgeStyle;rounded=0;orthogonalLoop=1;jettySize=auto;html=1;exitX=1;exitY=0.5;exitDx=0;exitDy=0;entryX=0;entryY=0.5;entryDx=0;entryDy=0;" parent="1" edge="1">
          <mxGeometry relative="1" as="geometry">
            <mxPoint x="195" y="287" as="sourcePoint" />
            <mxPoint x="670" y="287" as="targetPoint" />
          </mxGeometry>
        </mxCell>
        <mxCell id="RbEWKXzUfmcOPAviiLDR-73" value="发起进房，带上PrivateMapKey" style="edgeLabel;html=1;align=center;verticalAlign=middle;resizable=0;points=[];" parent="RbEWKXzUfmcOPAviiLDR-71" vertex="1" connectable="0">
          <mxGeometry x="-0.0128" y="1" relative="1" as="geometry">
            <mxPoint x="1" as="offset" />
          </mxGeometry>
        </mxCell>
        <mxCell id="HqfclWDo3by20rmH95Nw-41" style="edgeStyle=orthogonalEdgeStyle;rounded=0;orthogonalLoop=1;jettySize=auto;html=1;exitX=0.5;exitY=1;exitDx=0;exitDy=0;entryX=1;entryY=0.5;entryDx=0;entryDy=0;" parent="1" source="RbEWKXzUfmcOPAviiLDR-70" target="RbEWKXzUfmcOPAviiLDR-69" edge="1">
          <mxGeometry relative="1" as="geometry" />
        </mxCell>
        <mxCell id="HqfclWDo3by20rmH95Nw-42" value="成功" style="edgeLabel;html=1;align=center;verticalAlign=middle;resizable=0;points=[];" parent="HqfclWDo3by20rmH95Nw-41" vertex="1" connectable="0">
          <mxGeometry x="0.0867" y="-1" relative="1" as="geometry">
            <mxPoint x="-44" y="1" as="offset" />
          </mxGeometry>
        </mxCell>
        <mxCell id="S6mjlUuuefc65Kb8fgyC-104" value="房主客户端" style="swimlane;whiteSpace=wrap" parent="1" vertex="1">
          <mxGeometry x="305" y="30" width="280" height="1070" as="geometry" />
        </mxCell>
        <mxCell id="S6mjlUuuefc65Kb8fgyC-141" style="edgeStyle=orthogonalEdgeStyle;rounded=0;orthogonalLoop=1;jettySize=auto;html=1;exitX=0.5;exitY=1;exitDx=0;exitDy=0;entryX=0.5;entryY=0;entryDx=0;entryDy=0;" parent="S6mjlUuuefc65Kb8fgyC-104" source="S6mjlUuuefc65Kb8fgyC-137" target="S6mjlUuuefc65Kb8fgyC-140" edge="1">
          <mxGeometry relative="1" as="geometry" />
        </mxCell>
        <mxCell id="S6mjlUuuefc65Kb8fgyC-137" value="申请列表" style="" parent="S6mjlUuuefc65Kb8fgyC-104" vertex="1">
          <mxGeometry x="85" y="510" width="110" height="50" as="geometry" />
        </mxCell>
        <mxCell id="S6mjlUuuefc65Kb8fgyC-140" value="操作列表" style="" parent="S6mjlUuuefc65Kb8fgyC-104" vertex="1">
          <mxGeometry x="85" y="600" width="110" height="50" as="geometry" />
        </mxCell>
        <mxCell id="S6mjlUuuefc65Kb8fgyC-145" value="完成" style="" parent="S6mjlUuuefc65Kb8fgyC-104" vertex="1">
          <mxGeometry x="85" y="690" width="110" height="50" as="geometry" />
        </mxCell>
        <mxCell id="S6mjlUuuefc65Kb8fgyC-110" style="edgeStyle=orthogonalEdgeStyle;rounded=0;orthogonalLoop=1;jettySize=auto;html=1;exitX=1;exitY=0.5;exitDx=0;exitDy=0;entryX=0;entryY=0.5;entryDx=0;entryDy=0;" parent="1" source="7" target="S6mjlUuuefc65Kb8fgyC-108" edge="1">
          <mxGeometry relative="1" as="geometry" />
        </mxCell>
        <mxCell id="S6mjlUuuefc65Kb8fgyC-114" value="上麦请求" style="edgeLabel;html=1;align=center;verticalAlign=middle;resizable=0;points=[];" parent="S6mjlUuuefc65Kb8fgyC-110" vertex="1" connectable="0">
          <mxGeometry x="0.0071" y="4" relative="1" as="geometry">
            <mxPoint x="10" y="4" as="offset" />
          </mxGeometry>
        </mxCell>
        <mxCell id="S6mjlUuuefc65Kb8fgyC-113" style="edgeStyle=orthogonalEdgeStyle;rounded=0;orthogonalLoop=1;jettySize=auto;html=1;exitX=0;exitY=0.5;exitDx=0;exitDy=0;entryX=1;entryY=0.5;entryDx=0;entryDy=0;" parent="1" source="S6mjlUuuefc65Kb8fgyC-109" target="8" edge="1">
          <mxGeometry relative="1" as="geometry" />
        </mxCell>
        <mxCell id="S6mjlUuuefc65Kb8fgyC-115" value="返回结果" style="edgeLabel;html=1;align=center;verticalAlign=middle;resizable=0;points=[];" parent="S6mjlUuuefc65Kb8fgyC-113" vertex="1" connectable="0">
          <mxGeometry x="0.0147" y="-3" relative="1" as="geometry">
            <mxPoint x="17.85" y="3" as="offset" />
          </mxGeometry>
        </mxCell>
        <mxCell id="S6mjlUuuefc65Kb8fgyC-132" style="edgeStyle=orthogonalEdgeStyle;rounded=0;orthogonalLoop=1;jettySize=auto;html=1;exitX=0.5;exitY=1;exitDx=0;exitDy=0;entryX=1;entryY=0.5;entryDx=0;entryDy=0;" parent="1" source="S6mjlUuuefc65Kb8fgyC-129" target="S6mjlUuuefc65Kb8fgyC-76" edge="1">
          <mxGeometry relative="1" as="geometry">
            <mxPoint x="949.5" y="508.9999999999998" as="sourcePoint" />
            <mxPoint x="195" y="517" as="targetPoint" />
          </mxGeometry>
        </mxCell>
        <mxCell id="S6mjlUuuefc65Kb8fgyC-133" value="返回结果" style="edgeLabel;html=1;align=center;verticalAlign=middle;resizable=0;points=[];" parent="S6mjlUuuefc65Kb8fgyC-132" vertex="1" connectable="0">
          <mxGeometry x="0.0147" y="-3" relative="1" as="geometry">
            <mxPoint x="-30.240000000000002" y="3" as="offset" />
          </mxGeometry>
        </mxCell>
        <mxCell id="S6mjlUuuefc65Kb8fgyC-130" style="edgeStyle=orthogonalEdgeStyle;rounded=0;orthogonalLoop=1;jettySize=auto;html=1;exitX=1;exitY=0.5;exitDx=0;exitDy=0;entryX=0;entryY=0.5;entryDx=0;entryDy=0;" parent="1" source="S6mjlUuuefc65Kb8fgyC-74" target="S6mjlUuuefc65Kb8fgyC-129" edge="1">
          <mxGeometry relative="1" as="geometry">
            <mxPoint x="195" y="445" as="sourcePoint" />
          </mxGeometry>
        </mxCell>
        <mxCell id="S6mjlUuuefc65Kb8fgyC-131" value="上麦请求" style="edgeLabel;html=1;align=center;verticalAlign=middle;resizable=0;points=[];" parent="S6mjlUuuefc65Kb8fgyC-130" vertex="1" connectable="0">
          <mxGeometry x="0.0071" y="4" relative="1" as="geometry">
            <mxPoint x="10" y="4" as="offset" />
          </mxGeometry>
        </mxCell>
        <mxCell id="S6mjlUuuefc65Kb8fgyC-138" value="加入" style="edgeStyle=orthogonalEdgeStyle;rounded=0;orthogonalLoop=1;jettySize=auto;html=1;exitX=0.5;exitY=1;exitDx=0;exitDy=0;entryX=1;entryY=0.5;entryDx=0;entryDy=0;" parent="1" source="S6mjlUuuefc65Kb8fgyC-129" target="S6mjlUuuefc65Kb8fgyC-137" edge="1">
          <mxGeometry x="0.1659" relative="1" as="geometry">
            <mxPoint as="offset" />
          </mxGeometry>
        </mxCell>
        <mxCell id="S6mjlUuuefc65Kb8fgyC-143" style="edgeStyle=orthogonalEdgeStyle;rounded=0;orthogonalLoop=1;jettySize=auto;html=1;exitX=1;exitY=0.5;exitDx=0;exitDy=0;entryX=0;entryY=0.5;entryDx=0;entryDy=0;" parent="1" source="S6mjlUuuefc65Kb8fgyC-140" target="S6mjlUuuefc65Kb8fgyC-142" edge="1">
          <mxGeometry relative="1" as="geometry" />
        </mxCell>
        <mxCell id="S6mjlUuuefc65Kb8fgyC-144" value="同意上麦" style="edgeLabel;html=1;align=center;verticalAlign=middle;resizable=0;points=[];" parent="S6mjlUuuefc65Kb8fgyC-143" vertex="1" connectable="0">
          <mxGeometry x="0.0925" y="5" relative="1" as="geometry">
            <mxPoint as="offset" />
          </mxGeometry>
        </mxCell>
        <mxCell id="S6mjlUuuefc65Kb8fgyC-146" style="edgeStyle=orthogonalEdgeStyle;rounded=0;orthogonalLoop=1;jettySize=auto;html=1;exitX=0.5;exitY=1;exitDx=0;exitDy=0;entryX=1;entryY=0.5;entryDx=0;entryDy=0;" parent="1" source="S6mjlUuuefc65Kb8fgyC-142" target="S6mjlUuuefc65Kb8fgyC-145" edge="1">
          <mxGeometry relative="1" as="geometry" />
        </mxCell>
        <mxCell id="S6mjlUuuefc65Kb8fgyC-169" value="返回结果" style="edgeLabel;html=1;align=center;verticalAlign=middle;resizable=0;points=[];" parent="S6mjlUuuefc65Kb8fgyC-146" vertex="1" connectable="0">
          <mxGeometry x="0.1336" y="1" relative="1" as="geometry">
            <mxPoint as="offset" />
          </mxGeometry>
        </mxCell>
        <mxCell id="S6mjlUuuefc65Kb8fgyC-152" value="处理上麦" style="" parent="1" vertex="1">
          <mxGeometry x="685" y="870" width="110" height="50" as="geometry" />
        </mxCell>
        <mxCell id="S6mjlUuuefc65Kb8fgyC-155" style="edgeStyle=orthogonalEdgeStyle;rounded=0;orthogonalLoop=1;jettySize=auto;html=1;exitX=0.5;exitY=1;exitDx=0;exitDy=0;entryX=1;entryY=0.5;entryDx=0;entryDy=0;" parent="1" source="S6mjlUuuefc65Kb8fgyC-152" target="S6mjlUuuefc65Kb8fgyC-151" edge="1">
          <mxGeometry relative="1" as="geometry" />
        </mxCell>
        <mxCell id="S6mjlUuuefc65Kb8fgyC-156" value="成功" style="edgeLabel;html=1;align=center;verticalAlign=middle;resizable=0;points=[];" parent="S6mjlUuuefc65Kb8fgyC-155" vertex="1" connectable="0">
          <mxGeometry x="0.0867" y="-1" relative="1" as="geometry">
            <mxPoint x="-44" y="1" as="offset" />
          </mxGeometry>
        </mxCell>
        <mxCell id="S6mjlUuuefc65Kb8fgyC-166" style="edgeStyle=orthogonalEdgeStyle;rounded=0;orthogonalLoop=1;jettySize=auto;html=1;exitX=0;exitY=0.5;exitDx=0;exitDy=0;entryX=1;entryY=0.5;entryDx=0;entryDy=0;" parent="1" source="S6mjlUuuefc65Kb8fgyC-147" target="S6mjlUuuefc65Kb8fgyC-165" edge="1">
          <mxGeometry relative="1" as="geometry" />
        </mxCell>
        <mxCell id="S6mjlUuuefc65Kb8fgyC-167" value="下发IM" style="edgeLabel;html=1;align=center;verticalAlign=middle;resizable=0;points=[];" parent="S6mjlUuuefc65Kb8fgyC-166" vertex="1" connectable="0">
          <mxGeometry x="-0.0913" y="1" relative="1" as="geometry">
            <mxPoint as="offset" />
          </mxGeometry>
        </mxCell>
        <mxCell id="S6mjlUuuefc65Kb8fgyC-153" style="edgeStyle=orthogonalEdgeStyle;rounded=0;orthogonalLoop=1;jettySize=auto;html=1;exitX=1;exitY=0.5;exitDx=0;exitDy=0;entryX=0;entryY=0.5;entryDx=0;entryDy=0;" parent="1" source="S6mjlUuuefc65Kb8fgyC-150" target="S6mjlUuuefc65Kb8fgyC-152" edge="1">
          <mxGeometry relative="1" as="geometry">
            <mxPoint x="200" y="894.41" as="sourcePoint" />
            <mxPoint x="675" y="894.41" as="targetPoint" />
          </mxGeometry>
        </mxCell>
        <mxCell id="S6mjlUuuefc65Kb8fgyC-154" value="发起上麦，带上PrivateMapKey" style="edgeLabel;html=1;align=center;verticalAlign=middle;resizable=0;points=[];" parent="S6mjlUuuefc65Kb8fgyC-153" vertex="1" connectable="0">
          <mxGeometry x="-0.0128" y="1" relative="1" as="geometry">
            <mxPoint x="1" as="offset" />
          </mxGeometry>
        </mxCell>
      </root>
    </mxGraphModel>
  </diagram>
</mxfile>
